<?xml version="1.0" ?><svg viewBox="0 0 64 64" xmlns="http://www.w3.org/2000/svg"><g data-name="Layer 3" id="Layer_3"><path d="M32,1C22.778,9.781,16.2,18,18,25H46C47.573,17,40.993,10,32,1Z" style="fill:#82d0d8"/><path d="M28.109,25.116a9.523,9.523,0,0,1-8.143,2.964,2.021,2.021,0,0,1-1.84-2.061l.013-.4a8.031,8.031,0,0,0-2.031-5.639l-1.456-1.629,11.276-4.1-.069,2.185a8,8,0,0,0,2.033,5.583l.247.277A2.041,2.041,0,0,1,28.109,25.116Z" style="fill:#f2a7b1"/><path d="M14.652,18.354l1.456,1.629a8.031,8.031,0,0,1,2.031,5.639l-.013.4a2.021,2.021,0,0,0,1.84,2.061,9.523,9.523,0,0,0,8.143-2.964,2.038,2.038,0,0,0,.275-.359C25.553,22.313,20.716,20.225,14.652,18.354Z" style="fill:#e8859b"/><ellipse cx="20.29" cy="16.302" rx="6" ry="2" style="fill:#e8859b" transform="translate(-4.352 7.923) rotate(-20)"/><ellipse cx="20.29" cy="16.302" rx="3" ry="2" style="fill:#f2a7b1" transform="translate(-4.352 7.923) rotate(-20)"/><path d="M34.891,25.116a9.523,9.523,0,0,0,8.143,2.964,2.021,2.021,0,0,0,1.84-2.061l-.013-.4a8.031,8.031,0,0,1,2.031-5.639l1.456-1.629-11.276-4.1.069,2.185a8,8,0,0,1-2.033,5.583l-.247.277A2.041,2.041,0,0,0,34.891,25.116Z" style="fill:#f2a7b1"/><path d="M48.348,18.354l-1.456,1.629a8.031,8.031,0,0,0-2.031,5.639l.013.4a2.021,2.021,0,0,1-1.84,2.061,9.523,9.523,0,0,1-8.143-2.964,2.038,2.038,0,0,1-.275-.359C37.447,22.313,42.284,20.225,48.348,18.354Z" style="fill:#e8859b"/><ellipse cx="42.71" cy="16.302" rx="2" ry="6" style="fill:#e8859b" transform="translate(12.784 50.86) rotate(-70)"/><ellipse cx="42.71" cy="16.302" rx="2" ry="3" style="fill:#f2a7b1" transform="translate(12.784 50.86) rotate(-70)"/><path d="M37,45H27c-5.079-5.079-10.331-12.968-12.284-19.565a2,2,0,0,1,2.463-2.469,55.015,55.015,0,0,0,29.642,0,2,2,0,0,1,2.463,2.469C47.331,32.032,42.079,39.921,37,45Z" style="fill:#98deea"/><path d="M27,44a1,1,0,0,1-.928-.629l-.515-1.286A21.681,21.681,0,0,1,24,34a1,1,0,0,1,2,0,19.7,19.7,0,0,0,1.414,7.343l.514,1.286A1,1,0,0,1,27,44Z" style="fill:#82d0d8"/><path d="M35,44a1,1,0,0,1-.8-1.6l1.2-1.6A8.051,8.051,0,0,0,37,36a1,1,0,0,1,2,0,10.067,10.067,0,0,1-2,6l-1.2,1.6A1,1,0,0,1,35,44Z" style="fill:#82d0d8"/><path d="M31,45a1,1,0,0,1-.894-1.447l.659-1.317A11.759,11.759,0,0,0,32,37a1,1,0,0,1,2,0,13.779,13.779,0,0,1-1.447,6.131L31.9,44.447A1,1,0,0,1,31,45Z" style="fill:#82d0d8"/><path d="M17.982,23.173c-.268-.07-.536-.134-.8-.207a2,2,0,0,0-2.463,2.469C16.669,32.032,21.921,39.921,27,45h2.367c-5.08-5.079-10.331-12.968-12.284-19.565A1.965,1.965,0,0,1,17.982,23.173Z" style="fill:#82d0d8"/><path d="M41,61.105a22.317,22.317,0,0,1-18,0c-.044-6.2,1.189-10.322,4-16.1H37C39.811,50.783,41.044,54.9,41,61.105Z" style="fill:#98deea"/><path d="M25.83,53.292A40.978,40.978,0,0,1,29,45H27c-2.81,5.783-4.044,9.9-4,16.1a22.775,22.775,0,0,0,10,1.869l-.08,0A7.821,7.821,0,0,1,25.83,53.292Z" style="fill:#82d0d8"/><path d="M26,59l-2-3-3,1a18.751,18.751,0,0,1,7-12h3A81.011,81.011,0,0,0,26,59Z" style="fill:#ed5d5d"/><path d="M38,59l2-3,3,1a18.751,18.751,0,0,0-7-12H33A81.011,81.011,0,0,1,38,59Z" style="fill:#ed5d5d"/><path d="M32,44a17.653,17.653,0,0,0-7.722-2.867,2.051,2.051,0,0,0-2.019.954,10.038,10.038,0,0,0-1.38,3.474,2,2,0,0,0,2.672,2.26A28.025,28.025,0,0,1,32,46Z" style="fill:#f97878"/><path d="M32,44a17.653,17.653,0,0,1,7.722-2.867,2.051,2.051,0,0,1,2.019.954,10.038,10.038,0,0,1,1.38,3.474,2,2,0,0,1-2.672,2.26A28.025,28.025,0,0,0,32,46Z" style="fill:#f97878"/><rect height="4" rx="2" style="fill:#ed5d5d" width="6" x="29" y="43"/><path d="M36.333,23.957a9.52,9.52,0,0,1-8.666,0,2.021,2.021,0,0,1-1.024-2.566l.148-.368a8.042,8.042,0,0,0,.021-5.994L26,13H38l-.812,2.029a8.008,8.008,0,0,0,0,5.942l.138.345A2.04,2.04,0,0,1,36.333,23.957Z" style="fill:#f2a7b1"/><path d="M26,13l.812,2.029a8.042,8.042,0,0,1-.021,5.994l-.148.368a2.021,2.021,0,0,0,1.024,2.566,9.52,9.52,0,0,0,8.666,0,2.075,2.075,0,0,0,.381-.243C34.89,20.45,31.059,16.833,26,13Z" style="fill:#e8859b"/><ellipse cx="32" cy="13" rx="6" ry="2" style="fill:#e8859b"/><ellipse cx="32" cy="13" rx="3" ry="2" style="fill:#f2a7b1"/><path d="M15.674,5.415c-.237.17-.46.354-.677.545a8.586,8.586,0,0,0-.681-.558,2.135,2.135,0,0,0-2.712.18,1.925,1.925,0,0,0-.183,2.6A10.51,10.51,0,0,0,14.994,11,11.16,11.16,0,0,0,18.58,8.186a1.916,1.916,0,0,0-.188-2.6A2.144,2.144,0,0,0,15.674,5.415Z" style="fill:#f97878"/><path d="M49.674,3.415c-.237.17-.46.354-.677.545a8.586,8.586,0,0,0-.681-.558,2.135,2.135,0,0,0-2.712.18,1.925,1.925,0,0,0-.183,2.6A10.51,10.51,0,0,0,48.994,9,11.16,11.16,0,0,0,52.58,6.186a1.916,1.916,0,0,0-.188-2.6A2.144,2.144,0,0,0,49.674,3.415Z" style="fill:#f97878"/><path d="M13.43,8.184a1.931,1.931,0,0,1,.184-2.611,2.032,2.032,0,0,1,.469-.328,2.141,2.141,0,0,0-2.476.328,1.93,1.93,0,0,0-.184,2.611,10.532,10.532,0,0,0,3.586,2.827c.345-.182.674-.374.991-.573A9.856,9.856,0,0,1,13.43,8.184Z" style="fill:#ed5d5d"/><path d="M47.43,6.184a1.931,1.931,0,0,1,.184-2.611,2.032,2.032,0,0,1,.469-.328,2.141,2.141,0,0,0-2.476.328,1.93,1.93,0,0,0-.184,2.611,10.532,10.532,0,0,0,3.586,2.827c.345-.182.674-.374.991-.573A9.856,9.856,0,0,1,47.43,6.184Z" style="fill:#ed5d5d"/></g></svg>